# xmcd CD database file
# Copyright (C) 1997 Ti Kan
#
# Track frame offsets:
#  150
#  18575
#  41447
#  56725
#  72767
#  86127
#  106257
#  120215
#  135370
#  151522
#  167470
#  185485
#  197737
#
# Disc length: 2893 seconds
#
# Revision: 1
# Processed by: cddbd v1.4b41PL1 Copyright (c) Steve Scherf et al.
# Submitted via: CDWizzard Release:4.32
#
DISCID=9b0b4b0d
DTITLE=Mr. Frank Biner - The Frist Class Blues Band
DYEAR=1900
DGENRE=
TTITLE0=You're a tease, baby
TTITLE1=Pack My Suitcase
TTITLE2=Don't Let Me See You Cry
TTITLE3=(I'm Your) Teddy Bear
TTITLE4=Groove Me
TTITLE5=Seven Years
TTITLE6=I Know She Didn't Want Me
TTITLE7=Ooh Wee
TTITLE8=Frankie's Shuffle
TTITLE9=I'm Blue
TTITLE10=Personal Mananger
TTITLE11=You Don't Know Me That Well
TTITLE12=(Gonna Have) Funky Good Time
EXTD=
EXTT0=Frank Biner
EXTT1=Frank Biner
EXTT2=Frank Biner
EXTT3=Frank Biner
EXTT4=Frank Biner
EXTT5=Frank Biner
EXTT6=Frank Biner
EXTT7=Frank Biner
EXTT8=Frank Biner
EXTT9=Frank Biner
EXTT10=Frank Biner
EXTT11=
EXTT12=Frank Biner
PLAYORDER=
